<svg xmlns="http://www.w3.org/2000/svg" xmlns:xlink="http://www.w3.org/1999/xlink" width="500" zoomAndPan="magnify" viewBox="0 0 375 374.999991" height="500" preserveAspectRatio="xMidYMid meet" version="1.0"><defs><g/></defs><g fill="#000000" fill-opacity="1"><g transform="translate(60.813947, 252.906038)"><g><path d="M 51.859375 -29.03125 C 50.347656 -29.40625 49.21875 -30.53125 48.46875 -32.40625 C 47.71875 -34.28125 47.296875 -36.34375 47.203125 -38.59375 C 47.109375 -40.851562 47.34375 -42.457031 47.90625 -43.40625 C 52.226562 -51.289062 55.328125 -57.207031 57.203125 -61.15625 C 59.085938 -65.101562 60.546875 -68.203125 61.578125 -70.453125 C 62.609375 -72.703125 63.828125 -75.140625 65.234375 -77.765625 C 66.648438 -80.398438 68.859375 -84.347656 71.859375 -89.609375 C 72.609375 -90.742188 72.46875 -91.640625 71.4375 -92.296875 C 70.40625 -92.953125 69.046875 -93 67.359375 -92.4375 C 60.960938 -88.300781 54.242188 -83.929688 47.203125 -79.328125 C 40.160156 -74.722656 33.632812 -70.070312 27.625 -65.375 C 25.175781 -63.5 22.679688 -61.664062 20.140625 -59.875 C 17.609375 -58.09375 15.3125 -55.890625 13.25 -53.265625 C 11.363281 -50.628906 9.671875 -47.523438 8.171875 -43.953125 C 6.671875 -40.390625 4.601562 -37.578125 1.96875 -35.515625 C -0.09375 -34.003906 -2.25 -33.625 -4.5 -34.375 C -6.757812 -35.132812 -8.078125 -35.890625 -8.453125 -36.640625 C -9.765625 -38.703125 -10.234375 -41.09375 -9.859375 -43.8125 C -9.484375 -46.539062 -8.828125 -49.128906 -7.890625 -51.578125 C -6.578125 -54.390625 -5.070312 -57.109375 -3.375 -59.734375 C -1.6875 -62.367188 -0.1875 -65.003906 1.125 -67.640625 C 3.382812 -72.148438 6.0625 -76.421875 9.15625 -80.453125 C 12.257812 -84.492188 15.3125 -88.582031 18.3125 -92.71875 C 21.507812 -96.851562 24.46875 -101.171875 27.1875 -105.671875 C 29.914062 -110.179688 32.59375 -114.691406 35.21875 -119.203125 C 36.726562 -120.710938 38.09375 -121.46875 39.3125 -121.46875 C 40.53125 -121.46875 42.082031 -120.804688 43.96875 -119.484375 C 46.03125 -118.171875 46.828125 -116.335938 46.359375 -113.984375 C 45.890625 -111.640625 44.8125 -109.25 43.125 -106.8125 C 40.113281 -102.675781 37.195312 -98.492188 34.375 -94.265625 C 31.5625 -90.035156 28.648438 -85.757812 25.640625 -81.4375 C 24.328125 -79.5625 23.8125 -78.390625 24.09375 -77.921875 C 24.375 -77.453125 24.515625 -76.5625 24.515625 -75.25 C 25.453125 -75.25 26.015625 -75.34375 26.203125 -75.53125 C 27.898438 -76.65625 29.59375 -77.78125 31.28125 -78.90625 C 32.96875 -80.03125 34.566406 -81.253906 36.078125 -82.578125 C 41.523438 -87.078125 47.160156 -91.207031 52.984375 -94.96875 C 58.804688 -98.726562 64.628906 -102.394531 70.453125 -105.96875 C 71.953125 -106.90625 73.6875 -107.890625 75.65625 -108.921875 C 77.632812 -109.953125 79.46875 -110.75 81.15625 -111.3125 C 83.226562 -111.875 85.53125 -111.921875 88.0625 -111.453125 C 90.601562 -110.984375 92.8125 -110.5625 94.6875 -110.1875 C 95.0625 -110 95.53125 -109.8125 96.09375 -109.625 C 96.65625 -109.4375 97.03125 -109.0625 97.21875 -108.5 C 97.21875 -108.125 97.125 -107.75 96.9375 -107.375 C 96.75 -106.625 96.46875 -105.960938 96.09375 -105.390625 C 95.71875 -104.828125 95.34375 -104.265625 94.96875 -103.703125 C 93.84375 -102.015625 92.664062 -100.320312 91.4375 -98.625 C 90.21875 -96.9375 89.140625 -95.15625 88.203125 -93.28125 C 87.453125 -92.15625 86.84375 -90.835938 86.375 -89.328125 C 85.90625 -87.828125 85.296875 -86.328125 84.546875 -84.828125 L 78.34375 -73.546875 L 72.421875 -63.125 C 71.859375 -61.8125 71.25 -60.539062 70.59375 -59.3125 C 69.9375 -58.09375 69.328125 -56.828125 68.765625 -55.515625 C 68.015625 -53.640625 68.4375 -52.796875 70.03125 -52.984375 C 71.625 -53.171875 72.796875 -53.453125 73.546875 -53.828125 C 82.566406 -58.335938 91.113281 -63.785156 99.1875 -70.171875 C 107.269531 -76.554688 115.726562 -82.097656 124.5625 -86.796875 C 125.6875 -87.359375 126.90625 -88.0625 128.21875 -88.90625 C 129.539062 -89.757812 130.484375 -89.992188 131.046875 -89.609375 C 133.109375 -88.296875 133.671875 -86.320312 132.734375 -83.6875 C 131.796875 -81.0625 130.289062 -79 128.21875 -77.5 C 127.84375 -77.3125 126.101562 -76.039062 123 -73.6875 C 119.90625 -71.34375 116.148438 -68.617188 111.734375 -65.515625 C 107.316406 -62.421875 102.992188 -59.367188 98.765625 -56.359375 C 94.546875 -53.359375 91.117188 -51.007812 88.484375 -49.3125 C 82.472656 -45.1875 76.789062 -41.101562 71.4375 -37.0625 C 66.082031 -33.019531 59.554688 -30.34375 51.859375 -29.03125 Z M 51.859375 -29.03125 "/></g></g></g><g fill="#000000" fill-opacity="1"><g transform="translate(171.28619, 252.906038)"><g><path d="M 7.046875 -30.4375 C 5.546875 -29.5 3.945312 -29.6875 2.25 -31 C -4.132812 -36.257812 -6.296875 -43.023438 -4.234375 -51.296875 C -3.472656 -53.734375 -2.671875 -56.171875 -1.828125 -58.609375 C -0.984375 -61.054688 0.09375 -63.40625 1.40625 -65.65625 C 6.289062 -73.925781 11.738281 -81.675781 17.75 -88.90625 C 23.757812 -96.144531 30.523438 -102.675781 38.046875 -108.5 C 39.546875 -109.625 41.140625 -110.65625 42.828125 -111.59375 C 44.523438 -112.53125 46.21875 -113.378906 47.90625 -114.140625 C 53.351562 -116.578125 58.566406 -116.195312 63.546875 -113 C 68.523438 -109.8125 71.109375 -105.210938 71.296875 -99.203125 C 71.296875 -98.453125 71.296875 -97.742188 71.296875 -97.078125 C 71.296875 -96.421875 71.390625 -95.71875 71.578125 -94.96875 C 71.953125 -93.09375 71.8125 -91.398438 71.15625 -89.890625 C 70.5 -88.390625 69.609375 -86.890625 68.484375 -85.390625 C 66.785156 -82.753906 65.328125 -80.070312 64.109375 -77.34375 C 62.890625 -74.625 61.53125 -71.953125 60.03125 -69.328125 L 50.4375 -51.296875 C 50.25 -50.535156 49.828125 -49.546875 49.171875 -48.328125 C 48.515625 -47.109375 48.28125 -46.03125 48.46875 -45.09375 C 48.84375 -44.15625 49.546875 -44.15625 50.578125 -45.09375 C 51.617188 -46.03125 52.328125 -46.6875 52.703125 -47.0625 C 56.453125 -50.445312 60.347656 -53.546875 64.390625 -56.359375 C 68.429688 -59.179688 72.519531 -61.90625 76.65625 -64.53125 L 97.78125 -78.34375 C 99.851562 -79.65625 101.875 -81.015625 103.84375 -82.421875 C 105.820312 -83.835938 107.84375 -85.109375 109.90625 -86.234375 C 110.84375 -86.796875 111.96875 -87.453125 113.28125 -88.203125 C 114.601562 -88.953125 115.546875 -89.140625 116.109375 -88.765625 C 118.171875 -87.640625 118.734375 -85.757812 117.796875 -83.125 C 116.859375 -80.5 115.351562 -78.4375 113.28125 -76.9375 C 113.09375 -76.75 111.398438 -75.476562 108.203125 -73.125 C 105.015625 -70.78125 101.210938 -68.054688 96.796875 -64.953125 C 92.390625 -61.859375 88.070312 -58.804688 83.84375 -55.796875 C 79.613281 -52.796875 76.179688 -50.445312 73.546875 -48.75 C 70.171875 -46.3125 66.882812 -43.914062 63.6875 -41.5625 C 60.5 -39.21875 57.304688 -36.914062 54.109375 -34.65625 C 52.421875 -33.34375 50.445312 -32.40625 48.1875 -31.84375 C 44.613281 -30.71875 42.078125 -31.941406 40.578125 -35.515625 C 39.828125 -37.203125 39.265625 -38.703125 38.890625 -40.015625 C 38.515625 -41.328125 38.609375 -43.582031 39.171875 -46.78125 C 39.546875 -50.164062 40.390625 -53.40625 41.703125 -56.5 C 43.023438 -59.601562 43.5 -61.15625 43.125 -61.15625 C 42.363281 -61.15625 40.710938 -60.023438 38.171875 -57.765625 C 35.640625 -55.515625 32.773438 -52.882812 29.578125 -49.875 C 26.390625 -46.875 23.289062 -43.960938 20.28125 -41.140625 C 17.28125 -38.328125 15.03125 -36.164062 13.53125 -34.65625 C 12.59375 -33.90625 11.507812 -33.203125 10.28125 -32.546875 C 9.0625 -31.890625 7.984375 -31.1875 7.046875 -30.4375 Z M 7.609375 -46.21875 C 8.734375 -46.40625 9.765625 -46.875 10.703125 -47.625 C 11.460938 -47.8125 12.125 -48.375 12.6875 -49.3125 C 15.3125 -51.570312 17.890625 -53.875 20.421875 -56.21875 C 22.960938 -58.570312 25.550781 -60.875 28.1875 -63.125 C 32.5 -66.507812 36.488281 -70.125 40.15625 -73.96875 C 43.820312 -77.820312 47.441406 -81.722656 51.015625 -85.671875 C 54.015625 -88.867188 56.738281 -92.15625 59.1875 -95.53125 C 60.6875 -97.601562 61.578125 -99.625 61.859375 -101.59375 C 62.140625 -103.5625 61.71875 -105.019531 60.59375 -105.96875 C 58.894531 -107.28125 57.25 -107.65625 55.65625 -107.09375 C 54.0625 -106.53125 52.515625 -105.773438 51.015625 -104.828125 C 48.003906 -102.953125 45.132812 -100.929688 42.40625 -98.765625 C 39.6875 -96.609375 37.007812 -94.40625 34.375 -92.15625 C 30.25 -88.582031 26.445312 -84.539062 22.96875 -80.03125 C 19.488281 -75.519531 16.15625 -70.914062 12.96875 -66.21875 C 11.082031 -63.78125 9.671875 -61.054688 8.734375 -58.046875 C 7.796875 -55.046875 7.140625 -51.851562 6.765625 -48.46875 Z M 7.609375 -46.21875 "/></g></g></g><g fill="#000000" fill-opacity="1"><g transform="translate(267.667644, 252.906038)"><g><path d="M 13.8125 -32.96875 C 12.300781 -31.65625 10.65625 -31.421875 8.875 -32.265625 C 7.09375 -33.109375 5.164062 -34.566406 3.09375 -36.640625 C 1.96875 -37.578125 1.171875 -38.84375 0.703125 -40.4375 C 0.234375 -42.03125 0 -43.582031 0 -45.09375 C 0.375 -49.039062 1.828125 -51.25 4.359375 -51.71875 C 6.898438 -52.1875 9.578125 -51.617188 12.390625 -50.015625 C 15.210938 -48.421875 17.09375 -46.21875 18.03125 -43.40625 C 18.40625 -40.957031 18.21875 -38.976562 17.46875 -37.46875 C 16.71875 -35.96875 15.5 -34.46875 13.8125 -32.96875 Z M 13.8125 -32.96875 "/></g></g></g><g fill="#000000" fill-opacity="1"><g transform="translate(29.745657, 263.469284)"><g><path d="M 7.796875 -2.46875 L 7.796875 -0.71875 L 1.140625 -3.828125 L 1.140625 -5 L 7.796875 -8.109375 L 7.796875 -6.359375 L 3.359375 -4.40625 Z M 7.796875 -2.46875 "/></g></g></g><g fill="#000000" fill-opacity="1"><g transform="translate(47.368354, 263.469284)"><g><path d="M 3.171875 0 L 1.25 0 L 1.25 -10.484375 L 2.890625 -10.484375 L 8.609375 -3.140625 L 8.609375 -10.484375 L 10.515625 -10.484375 L 10.515625 0 L 8.875 0 L 3.171875 -7.328125 Z M 3.171875 0 "/></g></g></g><g fill="#000000" fill-opacity="1"><g transform="translate(67.371011, 263.469284)"><g><path d="M 5.546875 0.234375 C 4.910156 0.234375 4.320312 0.132812 3.78125 -0.0625 C 3.238281 -0.269531 2.757812 -0.554688 2.34375 -0.921875 C 1.9375 -1.296875 1.617188 -1.75 1.390625 -2.28125 C 1.171875 -2.8125 1.0625 -3.398438 1.0625 -4.046875 L 1.0625 -10.484375 L 2.96875 -10.484375 L 2.96875 -4.1875 C 2.96875 -3.695312 3.066406 -3.25 3.265625 -2.84375 C 3.460938 -2.445312 3.753906 -2.128906 4.140625 -1.890625 C 4.523438 -1.648438 4.992188 -1.53125 5.546875 -1.53125 C 6.078125 -1.53125 6.53125 -1.644531 6.90625 -1.875 C 7.289062 -2.113281 7.582031 -2.429688 7.78125 -2.828125 C 7.988281 -3.234375 8.09375 -3.6875 8.09375 -4.1875 L 8.09375 -10.484375 L 10.015625 -10.484375 L 10.015625 -4.046875 C 10.015625 -3.421875 9.90625 -2.847656 9.6875 -2.328125 C 9.476562 -1.804688 9.175781 -1.351562 8.78125 -0.96875 C 8.382812 -0.59375 7.910156 -0.296875 7.359375 -0.078125 C 6.804688 0.128906 6.203125 0.234375 5.546875 0.234375 Z M 5.546875 0.234375 "/></g></g></g><g fill="#000000" fill-opacity="1"><g transform="translate(86.680476, 263.469284)"><g><path d="M 5.4375 0 L 3.578125 0 L 0.109375 -10.484375 L 2.140625 -10.484375 L 4.359375 -3.390625 L 4.5625 -2.578125 L 4.59375 -2.578125 L 4.75 -3.421875 L 6.828125 -10.484375 L 8.859375 -10.484375 L 10.9375 -3.4375 L 11.125 -2.578125 L 11.140625 -2.578125 L 11.359375 -3.484375 L 13.546875 -10.484375 L 15.59375 -10.484375 L 12.125 0 L 10.265625 0 L 7.859375 -7.859375 Z M 5.4375 0 "/></g></g></g><g fill="#000000" fill-opacity="1"><g transform="translate(110.611225, 263.469284)"><g><path d="M 10.609375 0 L 8.578125 0 L 7.75 -2.03125 L 2.921875 -2.03125 L 2.09375 0 L 0.0625 0 L 4.4375 -10.484375 L 6.25 -10.484375 Z M 5.265625 -7.765625 L 3.578125 -3.625 L 7.09375 -3.625 L 5.40625 -7.765625 L 5.359375 -8.015625 L 5.328125 -8.015625 Z M 5.265625 -7.765625 "/></g></g></g><g fill="#000000" fill-opacity="1"><g transform="translate(129.535583, 263.469284)"><g><path d="M 3.171875 0 L 1.25 0 L 1.25 -10.484375 L 3.171875 -10.484375 Z M 3.171875 0 "/></g></g></g><g fill="#000000" fill-opacity="1"><g transform="translate(142.182698, 263.469284)"><g><path d="M 3.171875 0 L 1.25 0 L 1.25 -10.484375 L 5.765625 -10.484375 C 6.296875 -10.484375 6.78125 -10.398438 7.21875 -10.234375 C 7.664062 -10.078125 8.050781 -9.84375 8.375 -9.53125 C 8.707031 -9.226562 8.960938 -8.867188 9.140625 -8.453125 C 9.316406 -8.035156 9.40625 -7.570312 9.40625 -7.0625 C 9.40625 -6.570312 9.316406 -6.125 9.140625 -5.71875 C 8.960938 -5.3125 8.710938 -4.960938 8.390625 -4.671875 C 8.078125 -4.378906 7.707031 -4.160156 7.28125 -4.015625 L 9.640625 0 L 7.4375 0 L 5.375 -3.71875 C 5.300781 -3.71875 5.234375 -3.71875 5.171875 -3.71875 C 5.109375 -3.71875 5.039062 -3.71875 4.96875 -3.71875 L 3.171875 -3.71875 Z M 3.171875 -8.765625 L 3.171875 -5.328125 L 5.703125 -5.328125 C 6.035156 -5.335938 6.335938 -5.414062 6.609375 -5.5625 C 6.878906 -5.707031 7.09375 -5.910156 7.25 -6.171875 C 7.40625 -6.429688 7.484375 -6.726562 7.484375 -7.0625 C 7.484375 -7.382812 7.40625 -7.671875 7.25 -7.921875 C 7.09375 -8.179688 6.878906 -8.382812 6.609375 -8.53125 C 6.335938 -8.6875 6.03125 -8.765625 5.6875 -8.765625 Z M 3.171875 -8.765625 "/></g></g></g><g fill="#000000" fill-opacity="1"><g transform="translate(160.398459, 263.469284)"><g><path d="M 10.609375 0 L 8.578125 0 L 7.75 -2.03125 L 2.921875 -2.03125 L 2.09375 0 L 0.0625 0 L 4.4375 -10.484375 L 6.25 -10.484375 Z M 5.265625 -7.765625 L 3.578125 -3.625 L 7.09375 -3.625 L 5.40625 -7.765625 L 5.359375 -8.015625 L 5.328125 -8.015625 Z M 5.265625 -7.765625 "/></g></g></g><g fill="#000000" fill-opacity="1"><g transform="translate(179.322817, 263.469284)"><g><path d="M 3.171875 0 L 1.25 0 L 1.25 -10.484375 L 3.171875 -10.484375 L 3.171875 -6.140625 L 8.453125 -6.140625 L 8.453125 -10.484375 L 10.375 -10.484375 L 10.375 0 L 8.453125 0 L 8.453125 -4.421875 L 3.171875 -4.421875 Z M 3.171875 0 "/></g></g></g><g fill="#000000" fill-opacity="1"><g transform="translate(199.186837, 263.469284)"><g/></g></g><g fill="#000000" fill-opacity="1"><g transform="translate(211.271696, 263.469284)"><g><path d="M 1.625 1.609375 L -0.421875 1.609375 L 4.640625 -10.984375 L 6.671875 -10.984375 Z M 1.625 1.609375 "/></g></g></g><g fill="#000000" fill-opacity="1"><g transform="translate(226.07541, 263.469284)"><g/></g></g><g fill="#000000" fill-opacity="1"><g transform="translate(238.160268, 263.469284)"><g><path d="M 10.609375 0 L 8.578125 0 L 7.75 -2.03125 L 2.921875 -2.03125 L 2.09375 0 L 0.0625 0 L 4.4375 -10.484375 L 6.25 -10.484375 Z M 5.265625 -7.765625 L 3.578125 -3.625 L 7.09375 -3.625 L 5.40625 -7.765625 L 5.359375 -8.015625 L 5.328125 -8.015625 Z M 5.265625 -7.765625 "/></g></g></g><g fill="#000000" fill-opacity="1"><g transform="translate(257.084626, 263.469284)"><g><path d="M 3.171875 0 L 1.25 0 L 1.25 -10.484375 L 3.171875 -10.484375 L 3.171875 -6.140625 L 8.453125 -6.140625 L 8.453125 -10.484375 L 10.375 -10.484375 L 10.375 0 L 8.453125 0 L 8.453125 -4.421875 L 3.171875 -4.421875 Z M 3.171875 0 "/></g></g></g><g fill="#000000" fill-opacity="1"><g transform="translate(276.948646, 263.469284)"><g><path d="M 3.171875 0 L 1.25 0 L 1.25 -10.484375 L 2.921875 -10.484375 L 6.53125 -5.59375 L 10.171875 -10.484375 L 11.84375 -10.484375 L 11.84375 0 L 9.921875 0 L 9.921875 -7.40625 L 6.78125 -3.125 L 6.265625 -3.125 L 3.171875 -7.421875 Z M 3.171875 0 "/></g></g></g><g fill="#000000" fill-opacity="1"><g transform="translate(298.26837, 263.469284)"><g><path d="M 10.609375 0 L 8.578125 0 L 7.75 -2.03125 L 2.921875 -2.03125 L 2.09375 0 L 0.0625 0 L 4.4375 -10.484375 L 6.25 -10.484375 Z M 5.265625 -7.765625 L 3.578125 -3.625 L 7.09375 -3.625 L 5.40625 -7.765625 L 5.359375 -8.015625 L 5.328125 -8.015625 Z M 5.265625 -7.765625 "/></g></g></g><g fill="#000000" fill-opacity="1"><g transform="translate(317.192728, 263.469284)"><g><path d="M 5.3125 0 L 1.25 0 L 1.25 -10.484375 L 5.28125 -10.484375 C 6.125 -10.484375 6.882812 -10.359375 7.5625 -10.109375 C 8.25 -9.859375 8.835938 -9.5 9.328125 -9.03125 C 9.816406 -8.570312 10.191406 -8.019531 10.453125 -7.375 C 10.722656 -6.738281 10.859375 -6.03125 10.859375 -5.25 C 10.859375 -4.457031 10.722656 -3.738281 10.453125 -3.09375 C 10.191406 -2.457031 9.816406 -1.90625 9.328125 -1.4375 C 8.835938 -0.976562 8.253906 -0.625 7.578125 -0.375 C 6.898438 -0.125 6.144531 0 5.3125 0 Z M 3.140625 -8.78125 L 3.140625 -1.703125 L 5.25 -1.703125 C 6.007812 -1.703125 6.664062 -1.84375 7.21875 -2.125 C 7.769531 -2.414062 8.191406 -2.820312 8.484375 -3.34375 C 8.773438 -3.875 8.921875 -4.5 8.921875 -5.21875 C 8.921875 -5.925781 8.773438 -6.546875 8.484375 -7.078125 C 8.203125 -7.617188 7.785156 -8.035156 7.234375 -8.328125 C 6.679688 -8.628906 6.015625 -8.78125 5.234375 -8.78125 Z M 3.140625 -8.78125 "/></g></g></g><g fill="#000000" fill-opacity="1"><g transform="translate(336.802576, 263.469284)"><g><path d="M 7.53125 -3.421875 L 0.890625 -0.3125 L 0.890625 -2.078125 L 5.328125 -4 L 0.890625 -5.953125 L 0.890625 -7.703125 L 7.53125 -4.59375 Z M 7.53125 -3.421875 "/></g></g></g></svg>